<svg width="52" height="49" viewBox="0 0 52 49" fill="none" xmlns="http://www.w3.org/2000/svg">
<path d="M16.2498 11.4026H14.0832C12.8866 11.4026 11.9165 12.3015 11.9165 13.4105V37.5049C11.9165 38.6138 12.8866 39.5128 14.0832 39.5128H16.2498C17.4465 39.5128 18.4165 38.6138 18.4165 37.5049V13.4105C18.4165 12.3015 17.4465 11.4026 16.2498 11.4026Z" stroke="#05A2AE" stroke-miterlimit="10" stroke-linecap="round"/>
<path d="M8.66667 33.489C8.09203 33.489 7.54093 33.2775 7.1346 32.9009C6.72827 32.5244 6.5 32.0136 6.5 31.4811V19.4339C6.5 18.9014 6.72827 18.3907 7.1346 18.0141C7.54093 17.6376 8.09203 17.426 8.66667 17.426" stroke="#05A2AE" stroke-miterlimit="10" stroke-linecap="round"/>
<path d="M35.7502 39.5127H37.9168C39.1134 39.5127 40.0835 38.6137 40.0835 37.5048V13.4104C40.0835 12.3015 39.1134 11.4025 37.9168 11.4025H35.7502C34.5535 11.4025 33.5835 12.3015 33.5835 13.4104V37.5048C33.5835 38.6137 34.5535 39.5127 35.7502 39.5127Z" stroke="#05A2AE" stroke-miterlimit="10" stroke-linecap="round"/>
<path d="M43.3335 17.426C43.9081 17.426 44.4592 17.6376 44.8656 18.0141C45.2719 18.3907 45.5002 18.9014 45.5002 19.4339V31.4811C45.5002 32.0136 45.2719 32.5244 44.8656 32.9009C44.4592 33.2775 43.9081 33.489 43.3335 33.489" stroke="#05A2AE" stroke-miterlimit="10" stroke-linecap="round"/>
<path d="M32.4998 27.4653H21.6665" stroke="#05A2AE" stroke-miterlimit="10" stroke-linecap="round"/>
<path d="M21.6665 23.4497H32.4998" stroke="#05A2AE" stroke-miterlimit="10" stroke-linecap="round"/>
<path d="M48.2729 23.4497C48.5639 23.71 48.7953 24.0219 48.9533 24.3669C49.1114 24.7119 49.1928 25.0828 49.1928 25.4576C49.1928 25.8323 49.1114 26.2033 48.9533 26.5482C48.7953 26.8932 48.5639 27.2051 48.2729 27.4655" stroke="#05A2AE" stroke-miterlimit="10" stroke-linecap="round"/>
<path d="M3.72649 27.4655C3.43555 27.2051 3.20416 26.8932 3.04613 26.5482C2.88809 26.2033 2.80664 25.8323 2.80664 25.4576C2.80664 25.0828 2.88809 24.7119 3.04613 24.3669C3.20416 24.0219 3.43555 23.71 3.72649 23.4497" stroke="#05A2AE" stroke-miterlimit="10" stroke-linecap="round"/>
</svg>
