<svg width="53" height="51" viewBox="0 0 53 51" fill="none" xmlns="http://www.w3.org/2000/svg">
<path d="M45.2705 26.0982C43.1239 25.9077 40.9659 26.3212 39.0627 27.2877C37.1594 28.2541 35.5942 29.7313 34.5601 31.5369" stroke="#EBA14A" stroke-linecap="round" stroke-linejoin="round"/>
<path d="M35.863 27.8479C34.7414 26.9611 33.4357 26.3111 32.0319 25.9407C30.6282 25.5704 29.1581 25.488 27.7186 25.6991C26.2791 25.9102 24.9028 26.41 23.6802 27.1654C22.4576 27.9209 21.4165 28.9151 20.6255 30.0823" stroke="#EBA14A" stroke-linecap="round" stroke-linejoin="round"/>
<path d="M22.7456 35.8582C24.1188 36.5652 25.6693 36.8979 27.2273 36.8198C28.7854 36.7417 30.2909 36.2559 31.5789 35.4155" stroke="#EBA14A" stroke-linecap="round" stroke-linejoin="round"/>
<path d="M20.8247 29.8081C22.9377 27.7924 24.1759 25.0898 24.2918 22.2404C24.4353 19.5771 24.9629 16.9454 25.8597 14.4197" stroke="#EBA14A" stroke-linecap="round" stroke-linejoin="round"/>
<path d="M37.7178 39.9269C37.7178 39.9269 24.2911 51.2259 8.83281 36.786C8.28184 36.2009 7.90682 35.4846 7.74743 34.7127C7.58805 33.9409 7.65023 33.1422 7.92739 32.4013C10.1357 27.0681 12.3441 17.3502 21.4866 8.79164L27.7361 4.74426C28.1533 4.45166 28.6649 4.30824 29.1815 4.33907C29.6982 4.36989 30.1871 4.57299 30.5628 4.9129L34.9795 8.85488C35.1898 9.0512 35.3569 9.28566 35.471 9.54448C35.5851 9.80331 35.6439 10.0813 35.6439 10.3621C35.6439 10.6429 35.5851 10.9209 35.471 11.1797C35.3569 11.4385 35.1898 11.673 34.9795 11.8693C33.1466 13.6611 29.7899 15.6637 26.4995 10.8575" stroke="#EBA14A" stroke-linecap="round" stroke-linejoin="round"/>
<path d="M35.3335 41.4866C35.3335 41.4866 37.321 41.9293 38.6239 46.862" stroke="#EBA14A" stroke-linecap="round" stroke-linejoin="round"/>
</svg>
