<svg width="42" height="32" viewBox="0 0 42 32" fill="none" xmlns="http://www.w3.org/2000/svg">
<path d="M39.7452 8.00001V2.66668C39.7452 2.31305 39.5634 1.97392 39.2398 1.72387C38.9162 1.47382 38.4773 1.33334 38.0197 1.33334H3.50991C3.05229 1.33334 2.6134 1.47382 2.28981 1.72387C1.96621 1.97392 1.78442 2.31305 1.78442 2.66668V8.00001H39.7452Z" fill="#05A2AE"/>
<path d="M1.78442 10.6667V29.3334C1.78442 29.687 1.96621 30.0261 2.28981 30.2762C2.6134 30.5262 3.05229 30.6667 3.50991 30.6667H12.1374V10.6667H1.78442Z" fill="#DFD4C8"/>
<path d="M15.5884 30.6667H38.0198C38.4774 30.6667 38.9163 30.5262 39.2399 30.2762C39.5635 30.0261 39.7452 29.687 39.7452 29.3334V10.6667H15.5884V30.6667Z" fill="#EBA14A"/>
</svg>
