<svg width="42" height="32" viewBox="0 0 42 32" fill="none" xmlns="http://www.w3.org/2000/svg">
<g clip-path="url(#clip0)">
<path d="M19.7396 0.175931L1.06984 6.91593C0.943581 6.96067 0.836624 7.0325 0.761699 7.12288C0.686773 7.21325 0.647036 7.31836 0.647217 7.42569C0.647399 7.53302 0.687491 7.63805 0.762722 7.72827C0.837954 7.8185 0.945154 7.89011 1.07156 7.9346L19.888 14.6253C20.4436 14.8226 21.0855 14.8226 21.6411 14.6253L40.4576 7.9346C40.5841 7.89024 40.6914 7.81873 40.7668 7.72859C40.8422 7.63844 40.8824 7.53345 40.8828 7.42612C40.8832 7.31879 40.8436 7.21364 40.7688 7.12319C40.6941 7.03274 40.5872 6.9608 40.461 6.91593L21.7895 0.175931C21.4686 0.0600563 21.1188 0 20.7646 0C20.4104 0 20.0605 0.0600563 19.7396 0.175931Z" fill="#EBA14A"/>
<path opacity="0.64" d="M40.4612 15.5679L36.6047 14.1759C36.3285 14.0761 36.0275 14.0241 35.7227 14.0234C35.4179 14.0228 35.1165 14.0734 34.8395 14.1719L21.6413 18.8652C21.3663 18.9629 21.0673 19.0135 20.7647 19.0135C20.4621 19.0135 20.1631 18.9629 19.8882 18.8652L6.68816 14.1719C6.41146 14.0736 6.11039 14.0231 5.80587 14.0237C5.50135 14.0244 5.20067 14.0763 4.92471 14.1759L1.06824 15.5679C0.942063 15.6127 0.835228 15.6847 0.760455 15.7751C0.685682 15.8656 0.646123 15.9707 0.646487 16.0781C0.64685 16.1854 0.68712 16.2904 0.762505 16.3805C0.83789 16.4707 0.945213 16.5422 1.0717 16.5865L19.8882 23.2759C20.1629 23.3741 20.462 23.4249 20.7647 23.4249C21.0674 23.4249 21.3665 23.3741 21.6413 23.2759L40.4577 16.5865C40.5842 16.5422 40.6915 16.4707 40.7669 16.3805C40.8423 16.2904 40.8826 16.1854 40.8829 16.0781C40.8833 15.9707 40.8438 15.8656 40.769 15.7751C40.6942 15.6847 40.5874 15.6127 40.4612 15.5679Z" fill="#DFD4C8"/>
<path d="M40.4608 24.1438L36.6043 22.7518C36.3281 22.6521 36.0271 22.6001 35.7223 22.5994C35.4174 22.5987 35.1161 22.6494 34.8391 22.7478L21.6409 27.4398C21.3659 27.5375 21.0669 27.5881 20.7643 27.5881C20.4617 27.5881 20.1627 27.5375 19.8878 27.4398L6.68775 22.7465C6.41105 22.6482 6.10998 22.5977 5.80546 22.5984C5.50093 22.5991 5.20025 22.651 4.9243 22.7505L1.06783 24.1438C0.942134 24.1889 0.83578 24.2608 0.761363 24.3511C0.686947 24.4414 0.647589 24.5463 0.647952 24.6534C0.648315 24.7604 0.688386 24.8651 0.763414 24.9552C0.838442 25.0452 0.945283 25.1166 1.07128 25.1612L19.8878 31.8518C20.4434 32.0492 21.0852 32.0492 21.6409 31.8518L40.4573 25.1612C40.5833 25.1166 40.6902 25.0452 40.7652 24.9552C40.8402 24.8651 40.8803 24.7604 40.8806 24.6534C40.881 24.5463 40.8417 24.4414 40.7672 24.3511C40.6928 24.2608 40.5865 24.1889 40.4608 24.1438Z" fill="#05A2AE"/>
</g>
<defs>
<clipPath id="clip0">
<rect width="41.4118" height="32" fill="white" transform="translate(0.0588379)"/>
</clipPath>
</defs>
</svg>
