<svg width="39" height="30" viewBox="0 0 39 30" fill="none" xmlns="http://www.w3.org/2000/svg">
<path d="M7.68614 0.333252H2.50967C2.05204 0.333252 1.61315 0.473727 1.28956 0.723775C0.965971 0.973824 0.78418 1.31296 0.78418 1.66659V28.3333C0.78418 28.6869 0.965971 29.026 1.28956 29.2761C1.61315 29.5261 2.05204 29.6666 2.50967 29.6666H7.68614V0.333252Z" fill="#DFD4C8"/>
<path d="M11.1372 29.6666H28.3921V0.333252H11.1372V29.6666ZM19.7647 24.3333C19.307 24.3333 18.8681 24.1928 18.5446 23.9427C18.221 23.6927 18.0392 23.3535 18.0392 22.9999C18.0392 22.6463 18.221 22.3072 18.5446 22.0571C18.8681 21.8071 19.307 21.6666 19.7647 21.6666C20.2223 21.6666 20.6612 21.8071 20.9848 22.0571C21.3084 22.3072 21.4901 22.6463 21.4901 22.9999C21.4901 23.3535 21.3084 23.6927 20.9848 23.9427C20.6612 24.1928 20.2223 24.3333 19.7647 24.3333ZM19.7647 5.66658C20.2223 5.66658 20.6612 5.80706 20.9848 6.05711C21.3084 6.30716 21.4901 6.6463 21.4901 6.99992C21.4901 7.35354 21.3084 7.69268 20.9848 7.94273C20.6612 8.19278 20.2223 8.33325 19.7647 8.33325C19.307 8.33325 18.8681 8.19278 18.5446 7.94273C18.221 7.69268 18.0392 7.35354 18.0392 6.99992C18.0392 6.6463 18.221 6.30716 18.5446 6.05711C18.8681 5.80706 19.307 5.66658 19.7647 5.66658ZM19.7647 13.6666C20.2223 13.6666 20.6612 13.8071 20.9848 14.0571C21.3084 14.3072 21.4901 14.6463 21.4901 14.9999C21.4901 15.3535 21.3084 15.6927 20.9848 15.9427C20.6612 16.1928 20.2223 16.3333 19.7647 16.3333C19.307 16.3333 18.8681 16.1928 18.5446 15.9427C18.221 15.6927 18.0392 15.3535 18.0392 14.9999C18.0392 14.6463 18.221 14.3072 18.5446 14.0571C18.8681 13.8071 19.307 13.6666 19.7647 13.6666Z" fill="#EBA14A"/>
<path d="M37.0192 0.333252H31.8428V29.6666H37.0192C37.4769 29.6666 37.9158 29.5261 38.2393 29.2761C38.5629 29.026 38.7447 28.6869 38.7447 28.3333V1.66659C38.7447 1.31296 38.5629 0.973824 38.2393 0.723775C37.9158 0.473727 37.4769 0.333252 37.0192 0.333252Z" fill="#05A2AE"/>
</svg>
